# xmcd
#
# Track frame offsets: 
#        180
#        16363
#        38639
#        69590
#        87047
#        106244
#        127270
#        146788
#        165119
#        186888
#        206114
#        223498
#        241349
#        266814
#        290713
#
# Disc length: 4159 seconds
#
# Revision: 2
# Processed by: cddbd v1.5.2PL0 Copyright (c) Steve Scherf et al.
# Submitted via: ExactAudioCopy v0.99pb5
#
DISCID=e8103d0f
DTITLE=B.G. The Prince Of Rap - Get The Groove On
DYEAR=1996
DGENRE=Euro-House
TTITLE0=StoMP (Full Party Radio Mix)
TTITLE1=Get The Groove On
TTITLE2=Stronger Love
TTITLE3=Jump To This (Allnight!)
TTITLE4=I Got What You Want
TTITLE5=Take Me Through The Night
TTITLE6=Move It
TTITLE7=Love Will Always Find You
TTITLE8=Love Is...
TTITLE9=Don't Stop - Keep Movin'
TTITLE10=I Gave You All My Money
TTITLE11=What You Feel Like
TTITLE12=Disco Fever
TTITLE13=Jump
TTITLE14=Crazy
EXTD=
EXTT0=
EXTT1=
EXTT2=
EXTT3=
EXTT4=
EXTT5=
EXTT6=
EXTT7=
EXTT8=
EXTT9=
EXTT10=
EXTT11=
EXTT12=
EXTT13=
EXTT14=
PLAYORDER=
